<svg width="512" height="512" viewBox="0 0 512 512" fill="none" xmlns="http://www.w3.org/2000/svg">
  <rect width="512" height="512" rx="96" fill="#F8FAFC"/>
  <path d="M308 104C344 134 286 158 286 192" stroke="#EA2D2E" stroke-width="18" stroke-linecap="round"/>
  <path d="M250 122C278 148 232 170 232 196" stroke="#F89820" stroke-width="16" stroke-linecap="round"/>
  <path d="M334 158C362 184 314 206 314 232" stroke="#5382A1" stroke-width="14" stroke-linecap="round"/>
  <ellipse cx="256" cy="334" rx="116" ry="28" fill="#5382A1"/>
  <path d="M176 250H336V326C336 374 300 408 256 408C212 408 176 374 176 326V250Z" fill="#F89820"/>
  <path d="M154 334C188 348 220 354 256 354C292 354 324 348 358 334" stroke="#F8FAFC" stroke-width="16" stroke-linecap="round"/>
</svg>
